<svg version="1.0" xmlns="http://www.w3.org/2000/svg"
width="50" height="80" viewBox="0 0 201.000000 251.000000"
preserveAspectRatio="xMidYMid meet">
<metadata>
Recurse Logo
</metadata>
<g transform="translate(0.000000,251.000000) scale(0.100000,-0.100000)"
fill="#000000" stroke="none">
<path d="M0 1675 l0 -835 335 0 335 0 0 -85 0 -85 -250 0 -250 0 0 -85 0 -85
-85 0 -85 0 0 -250 0 -250 1005 0 1005 0 0 250 0 250 -85 0 -85 0 0 85 0 85
-250 0 -250 0 0 85 0 85 335 0 335 0 0 835 0 835 -1005 0 -1005 0 0 -835z
m1850 0 l0 -675 -845 0 -845 0 0 675 0 675 845 0 845 0 0 -675z m-1180 -1255
l0 -90 85 0 85 0 0 -85 0 -85 -85 0 -85 0 0 85 0 85 -85 0 -85 0 0 -85 0 -85
-85 0 -85 0 0 85 0 85 85 0 85 0 0 90 0 90 85 0 85 0 0 -90z m340 0 l0 -90 85
0 85 0 0 90 0 90 80 0 80 0 0 -90 0 -90 85 0 85 0 0 90 0 90 85 0 85 0 0 -90
0 -90 -85 0 -85 0 0 -85 0 -85 -85 0 -85 0 0 85 0 85 -80 0 -80 0 0 -85 0 -85
-85 0 -85 0 0 85 0 85 -80 0 -80 0 0 90 0 90 80 0 80 0 0 -90z"/>
<path d="M340 2090 l0 -80 85 0 85 0 0 -85 0 -85 -85 0 -85 0 0 -330 0 -330
665 0 665 0 0 495 0 495 -665 0 -665 0 0 -80z m500 -165 l0 -85 -85 0 -85 0 0
85 0 85 85 0 85 0 0 -85z m340 0 l0 -85 -90 0 -90 0 0 85 0 85 90 0 90 0 0
-85z m-340 -335 l0 -90 -170 0 -170 0 0 90 0 90 170 0 170 0 0 -90z m500 0 l0
-90 -170 0 -170 0 0 90 0 90 170 0 170 0 0 -90z"/>
</g>
</svg>